<?xml version="1.0" encoding="utf-8"?>
<!-- Generator: Adobe Illustrator 23.0.4, SVG Export Plug-In . SVG Version: 6.00 Build 0)  -->
<svg version="1.1" id="Layer_1" xmlns="http://www.w3.org/2000/svg" xmlns:xlink="http://www.w3.org/1999/xlink" x="0px" y="0px"
	 viewBox="0 0 864 864" style="enable-background:new 0 0 864 864;" xml:space="preserve">
<style type="text/css">
	.st0{fill:#614224;}
	.st1{fill:#EAA134;}
</style>
<path class="st0" d="M487.38,172.59c-1.49,0.99-4.14,1.21-5.75,1.42c-0.39,0.05-1.19-0.45-1.2-0.73c-0.05-2.48-0.57-4.98-1.46-7.28
	c-0.49-1.26-1.84-2.24-3.22-1.94c-1.32,0.29-1.96,1.73-1.5,2.95c0.84,2.26,0.89,4.22,0.49,6.58c-0.03,0.15-0.42,0.57-0.62,0.64
	c-2.34,0.83-5.38,2.32-9.11,4.61c-3.89,2.39-7.87,5.02-10.04,9.11c-0.21,0.4-1.45,0.96-1.99,0.85c-8.09-1.66-16.33-3.07-24.11-5.63
	c-2.04-0.67-2.23-3.5-0.3-4.46c3.52-1.77,6.97-3.92,11.1-4.54l0.11-0.02c1.13-0.17,2.27-0.17,3.4-0.01
	c0.19,0.03,0.38,0.05,0.57,0.08c4.74,0.65,9.24,1.58,13.83,2.95c2.18,0.65,2.18-2.43,0.37-3.08c-1.57-0.56-3.15-1.01-4.74-1.41
	c-0.46-0.11-0.43-0.77,0.03-0.86c14.77-3,11.75-4.8-8.7-4.69c-1,0.01-1.69-1.02-1.29-1.94l0.03-0.07c0.26-0.62,0.83-1.04,1.5-1.14
	c11.26-1.66,22.27-5.39,32.51-10.22c6.49-3.07,10.53-5.8,12.45-7.83c2.85-2.87,4.29-7.33,3.7-11.19c-0.21-1.35-1.75-1.86-2.91-1.48
	c-1.39,0.46-2.03,1.81-1.91,3.18c0.24,2.92-1.19,4.75-3.18,6.2c-1.88,0.39-4.21,1.1-6.95,2.18c-0.85,0.33-1.75-0.37-1.61-1.27
	c1-6.36,2.1-12.54,4.79-18.72c1.23-2.83-2.26-4.09-3.57-1.73c-0.68,1.23-1.64,2.62-2.47,4.02c-0.52,0.88-2.32,0.88-2.58,0.46
	c-0.44-0.7-0.89-1.38-1.38-2.04c-1.49-2.03-3.16-3.95-5.12-5.53c-2.64-2.14-4.41,0.66-1.86,3.09c2.07,1.97,2.5,4.32,3.9,6.83
	c0.86,1.55,1.55,2.93,2.54,4.16c0.8,0.99,1.07,2.29,0.78,3.53c-0.8,3.4-1.35,6.85-1.68,10.24c-0.04,0.39-0.28,0.72-0.64,0.87
	c-5.69,2.41-11.6,4.37-17.59,5.88c-1.48,0.37-2.66-1.26-1.83-2.55c1.04-1.62,2.07-3.24,2.87-4.98c0.52-1.13,1-2.21,1.44-3.26
	c0.33-0.78,1.02-1.34,1.85-1.5c11.74-2.17,12.99-4.75,3.38-5.63c-0.94-0.09-1.69-0.82-1.83-1.76c-0.48-3.37,0.63-6.72,0.63-8.75
	c0-3.09-2.19-4-4.13-2.06c-1.87,1.87-4.1,6.02-6.9,11.24c-0.36,0.67-1.05,1.1-1.82,1.13c-2.94,0.1-6.2,0.27-9.79,0.52
	c-3.25,0.23-6.14-1.11-8.87-2.7c-1.01-0.59-0.92-2.2,0.21-2.52c0.01,0,0.02-0.01,0.02-0.01c5.35-0.75,11.27-1.4,13.74-2.5
	c3.62-1.62,5.07-4.95,3.09-6.19c-1.18-0.74-4.56,0.2-6.76,0.14c-5.61-0.14-6.28-3.66-5.53-7.24c0.01-0.05,0.02-0.1,0.03-0.15
	c2-9.12,15.91-5.06,21.54-3.07c2.72,0.96,5.01-2.83,2.06-3.98c-2.63-1.03-5.37-2.02-8.15-2.71c-1.16-0.29-1.31-1.87-0.21-2.35
	l0.04-0.02c1.98-0.85,3.57-1.74,4.81-2.62c0.13,0.01,0.26,0.02,0.41,0.01c3.49-0.21,6.95,0.08,10.42-0.49
	c1.26-0.21,2.52-0.48,3.74-0.88c0.87-0.28,3.03-1.77,3.96-1.29c2.6,1.34,5.27-2.8,2.51-4.26c-2.7-1.42-4.86-0.04-7.5,0.75
	c-1.8,0.54-3.61,0.67-5.41,0.67c-0.56,0-1.02-0.42-1.08-0.97l0-0.03c-0.18-1.67-0.19-3.35,0-5.02c0.77-6.71,1.85-10.99-0.45-17.06
	c-1.08-2.85-4.61-1.33-3.62,1.34c1.66,4.47,0.15,10.33-0.81,14.86c-0.23,1.08-0.67,2.31-0.77,3.43l0,0.03
	c-0.11,1.26-1.23,2.43-2.49,2.55c-1.22,0.11-2.67,0.42-4.35,0.97c-1.15,0.38-2.31-0.64-2.05-1.82c0.16-0.72,0.39-1.44,0.59-2.21
	c0.69-2.62,0.29-6.73,2.16-8.83c2.19-2.46-0.08-5.15-2.43-2.82c-2.93,2.9-3.9,7.68-5.19,11.47c-0.58,1.69-0.91,3.29-0.95,4.85
	c-0.04,1.56-0.94,2.96-2.38,3.56c-0.49,0.21-0.98,0.42-1.47,0.63c-1.58,0.68-3.27-0.7-2.91-2.39c0.59-2.8,1.17-5.6,1.87-8.36
	c0.77-3.06,0.95-5.56,0.72-7.49c0.2-0.29,0.4-0.57,0.65-0.81c0.93-0.88,2.64-1.34,3.76-1.96c1.39-0.77,2.72-1.63,4-2.56
	c2.63-1.91,0.65-6.2-2.26-4.17c-1.4,0.97-2.91,1.64-4.41,2.33c-0.94,0.43-2.02-0.18-2.16-1.2c-0.25-1.97-0.39-3.92-0.44-5.91
	c1.36-0.71,2.24-1.51,2.65-2.31c3.05-2.72,5.48-6.67,6.5-10.51c0.75-2.83-3.26-3.99-4.4-1.41c-0.79,1.78-1.52,3.51-2.69,5.08
	c-0.81,1.08-1.75,2.01-2.71,2.92c-1.5-0.27-3.43-0.25-5.76,0.21c-4.49,0.89-8.91,1.5-13.44,1.6c-0.19-0.23-0.28-0.34-0.47-0.58
	c0.54-2.23,1.5-4.37,2.5-6.4c0.53-1.08,1.04-3.58,1.03-5.75c0.57-1.08,0.14-2.48-0.71-3.33c-1.6-1.6-3.3-3.09-4.93-4.66
	c-0.91-0.88-2.53-1.17-3.48-0.18c-0.99,1.03-0.54,2.55,0.32,3.47c0.62,0.66,1.23,1.33,1.84,2c0.8,0.88,0.86,2.2,0.17,3.17
	c-0.3,0.42-0.55,0.81-0.71,1.13c-1.6,3.25-3.07,6.65-3.69,10.23c-0.12,0.68-0.43,1.31-0.93,1.79c-1.86,1.77-3.66,3.6-5.41,5.47
	c-0.88,0.95-2.46,0.47-2.71-0.8c-0.64-3.35-1.31-6.7-0.98-10.08c0.24-2.5,0.14-4.61-0.19-6.25c-0.09-0.45,0.08-0.91,0.42-1.21
	c0.53-0.46,1.06-0.92,1.63-1.33c1.49-1.07,3.11-1.97,4.74-2.81c2.45-1.25,1.18-5.75-1.63-4.43c-2.95,1.38-6.32,3.09-8.87,5.35
	c-0.43,0.38-1.11,0.29-1.39-0.21c-0.45-0.8-1.07-1.49-1.94-2.07c-1.82-1.22-3.02,1.38-1.68,2.69c0.65,0.64,0.56,1.69,0.65,2.52
	c0.12,1.06,0.32,2.11,0.77,3.08c0.14,0.3,0.31,0.6,0.48,0.89c-0.2,0.99-0.38,2.09-0.51,3.32c-0.74,6.9,1.83,13.68,2.42,20.56
	c0.05,0.57-0.13,1.13-0.48,1.58c-0.02,0.03-0.05,0.06-0.07,0.09c-0.63,0.81-1.86,0.74-2.41-0.12c-2.23-3.55-5.01-6.89-6.6-10.67
	c0.13-0.15,0.24-0.3,0.33-0.47c0.92-1.77,1.91-3.59,2.72-5.42c0.53-1.19,0.59-2.71-0.77-3.39c-1.28-0.63-2.84,0.13-3.52,1.28
	c-1.02,1.72-1.91,3.59-2.82,5.37c-0.19,0.38-0.3,0.79-0.35,1.21c-0.52,0.47-0.75,1.23-0.36,2.28c1.74,4.65,4.46,8.78,6.74,13.15
	c0.64,1.23,0.42,2.68-0.42,3.78c-0.67,0.88-3.19,2.24-4.11,1.01c-3.03-4.05-5.92-8.2-8.79-12.37c-0.67-0.97-0.79-2.23-0.29-3.3
	c0.84-1.79,1.53-3.66,2.13-5.51c1.18-3.65,1.39-8.5,3.6-11.67c0.7-1,0.48-1.98-0.14-2.63c-0.1-0.37-0.29-0.72-0.62-1.03
	c-0.89-0.83-1.99-1.4-2.84-2.3c-0.79-0.83-1.31-1.83-1.93-2.77c-1.75-2.67-5.51,0.2-4.42,2.84c0.56,1.37,1.54,2.57,2.48,3.7
	c0.44,0.53,0.88,1.06,1.36,1.56c0.48,0.49,0.65,1.22,0.42,1.86c-0.71,1.96-1.14,4.07-1.83,6.07c-0.42,1.23-0.88,2.42-1.36,3.6
	c-0.51,1.23-2.19,1.41-2.96,0.32c-0.5-0.71-0.99-1.41-1.5-2.12c-3.48-4.89-6.9-7.1-9.27-7.26c-0.25-0.14-0.52-0.26-0.83-0.33
	c-3.22-0.7-6.56-1.75-9.38-3.49c-2.87-1.76-4.59,2.36-1.99,4.05c2.34,1.52,4.7,2.82,7.25,3.76c1.16,0.43,2.06,1.34,2.48,2.51
	c0.57,1.58,1.53,3.4,2.97,5.43c1.33,1.86,2.63,3.74,3.93,5.63c0.89,1.29-0.17,3.03-1.72,2.82c-0.69-0.09-1.38-0.2-2.07-0.31
	c-0.25-0.04-0.47-0.18-0.62-0.39c-3.18-4.45-6.95-8.67-11.39-11.74c-2.4-1.66-4.8,1.91-2.58,3.69c1.82,1.46,3.38,3.05,4.8,4.74
	c0.59,0.7,0.01,1.74-0.9,1.66c-9.51-0.87-6.74,5.85,2.68,8.17c2.97,0.73,5.97,1.31,8.98,1.74c1.7,0.24,2.62,2.13,1.75,3.61
	c-1.42,2.39-2.94,5.36-4.51,8.92c-1.51,3.41-3.74,6.42-6.06,9.37c-1.57,2-4.77,1.44-5.54-0.99c-0.3-0.95-0.61-1.9-0.93-2.85
	c-1.27-3.72-4.42-5.48-7.52-5.63c-0.21-0.21-0.43-0.41-0.69-0.59c-2.13-1.54-4.27-3.05-6.41-4.56c-2.13-1.5-3.15-4.14-2.57-6.69
	c1.21-5.35,2.79-10.63,2.42-16.14c-0.19-2.86-0.61-5.18-1.15-6.99c-0.22-0.74-0.07-1.53,0.42-2.13l0.01-0.01
	c0.53-0.65,1.3-1.21,1.94-1.73c1.74-1.42,3.57-2.7,5.27-4.17c2.25-1.94-0.32-5.51-2.86-3.76c-2.27,1.57-4.51,3.3-6.68,5.01
	l-0.01,0.01c-0.86,0.68-2.06,0.73-2.97,0.12c-0.34-0.23-0.68-0.46-1.01-0.72c-0.92-0.73-1.74-1.6-2.59-2.4
	c-0.93-0.87-2.54-1.19-3.5-0.18c-0.99,1.03-0.55,2.57,0.33,3.49c0.93,0.98,1.96,1.83,2.97,2.72c0.46,0.41,0.93,0.84,1.41,1.26
	c0.79,0.69,1.2,1.71,1.05,2.75c-0.05,0.35-0.09,0.73-0.13,1.12c-0.13,1.39-1.82,2.05-2.84,1.08c-3.75-3.55-7.99-6.51-12.81-9.2
	c-2.96-1.66-4.6,2.37-2,4.07c6.43,4.2,11.58,8.41,16,14.36c0.74,0.99,1.06,2.25,0.81,3.46c-0.38,1.85-0.83,3.69-1.25,5.53
	c-0.21,0.92-1.28,1.33-2.05,0.79c-3.52-2.48-7.07-4.92-10.27-7.81c-1.81-1.64-3.46-3.02-4.95-4.16c-2.05-1.57-3.22-4.02-3.13-6.59
	c0.08-2.46,0.05-4.89-0.81-7.16c-1.1-2.92-4.79,0.12-4.62,2.27c0.11,1.34,0.04,2.71-0.06,4.08c-0.06,0.79-0.75,1.39-1.53,1.33
	c-1.94-0.16-3.86-0.41-5.78-0.78c-3.35-0.65-3.82,3.91-0.81,4.71c1.58,0.42,3.19,0.77,4.81,1.06c0.97,0.17,1.8,0.82,2.2,1.72
	c1.43,3.23,4.65,7.63,9.56,12.18c7.47,6.92,16.27,12.18,24.63,17.98c1.19,0.82,2.07,2.02,2.53,3.39l0.01,0.02
	c3.33,9.78,5.61,19.86,8.27,29.83c0.75,2.82-2.48,5.04-4.82,3.3c-4.56-3.4-8.68-7.18-12.26-11.7c-0.59-6.23,1.03-13.06,1.17-19.09
	c0.08-3.5-4.51-2.34-4.94,0.46c-0.35,2.29-0.64,4.62-0.88,6.96c-0.18,1.68-2.24,2.35-3.38,1.11c-1.23-1.33-2.37-2.37-3.4-3.15
	c-0.14-0.4-0.28-0.8-0.44-1.2c-1.89-4.8-3.37-8.46-2.95-13.8c0.28-3.54-4.59-2.39-5.05,0.47c-0.68,4.25-0.1,8.08,1.17,11.98
	c-1.69,0.51-3.33,1.3-5.1,1.88c-3.85,1.25-7.83,2.27-11.78,3.11c-2.74,0.58-3.61,5.44-0.26,4.89l0.03-0.01
	c1.16-0.19,2.21,0.65,2.34,1.82c0.15,1.36,0.49,2.96,1.07,4.78c1.06,3.34,2.32,6.6,3.59,9.85c0.62,1.61-0.61,3.36-2.33,3.26
	c-0.6-0.04-1.19-0.05-1.79-0.03c-3.49,0.15-6.16,0.6-8.11,1.24c-0.92,0.3-1.93,0.03-2.6-0.67c-1.28-1.33-2.57-2.69-3.49-4.31
	c-1.45-2.57-4.03-2.17-3.52,2.59c0.27,2.48,1.8,3.88,3.77,5.6c0.69,0.6,0.45,1.74-0.42,1.99c-2.62,0.76-5.13,1.11-6.73,0.14
	c-1.61-0.97-3.07,1.42-1.54,2.47c4.17,2.85,9.13,1.32,14.11-0.16c2.08,0.87,4.92,1.42,8.3,1.36c6.52-0.12,12.95-0.58,19.37-1
	c1.08-0.07,1.66,1.59,0.87,2.47c-1.91,2.12-4.47,3.75-5.85,6.26c-1.96,3.58,1.13,5.64,2.16,3.58c2.53-5.06,9.86-8.4,13.66-12.91
	c2.34-0.1,4.69-0.16,7.04-0.18c0.91,0,1.81,0.27,2.57,0.76c3.47,2.25,7.02,4.45,10.44,6.89c0.93,0.66,1.25,1.92,0.74,2.94
	c-0.32,0.64-0.67,1.28-1.06,1.92c-0.17,0.28-1.66,0.19-2.19-0.16c-1.61-1.06-2.99-2.3-4.52-3.75c-2.19-2.08-4.77-3.48-7.61-4.47
	c-2.62-0.91-5.5,3.17-2.62,4.46c0.39,0.17,0.76,0.35,1.13,0.52c0.76,0.36,1.11,1.22,0.88,2.03c-0.21,0.73-0.4,1.55-0.55,2.44
	c-0.04,0.27-0.1,0.54-0.15,0.8c-0.16,0.74-1.11,0.96-1.56,0.35c-0.68-0.93-1.37-1.87-2.07-2.79c-0.75-0.98-2.43-0.55-3.19,0.1
	c-0.93,0.79-1.39,2.06-0.83,3.21c0.85,1.72,2.04,3.42,3.33,4.97c0.64,0.77,0.66,1.89,0.04,2.68c-1.88,2.41-4.12,4.6-6.26,6.74
	c-0.84,0.26-1.63,0.67-2.28,1.24c-3.81-2.89-7.41-5.96-10.91-9.23c-0.05-0.05-0.1-0.1-0.15-0.14c-1.24-1.15-1.97-2.78-1.81-4.46
	c0.32-3.46-0.98-6.83-3.02-9.93c-1.72-2.63-5.94,0.29-4.47,2.87c0.89,1.56,2.03,3.14,2.23,4.98c0.07,0.6,0.02,1.18-0.06,1.76
	c-1.05-0.67-2.09-1.36-3.36-1.66c-2.39-0.56-4.94-0.18-7.35,0.05c-2.91,0.28-3.61,5.13-0.26,4.9c2.34-0.16,4.64-0.13,6.73,1.06
	c1.08,0.61,1.98,1.29,2.97,1.86c0.74,1.24,1.79,2.58,3.16,3.91c0.8,0.77,1.62,1.51,2.45,2.23c0,0.06,0.01,0.1,0.01,0.16
	c-1.28,1.42-3.9,2.6-5.34,3.44c-2.18,1.28-4.51,2-6.95,2.6c-2.55,0.63-2.62,5.5,0.37,4.87c3.25-0.68,6.46-1.73,9.45-3.17
	c1.54-0.75,3.36-1.76,4.91-2.99c1.04-0.82,2.51-0.82,3.55,0c2.53,2,5.06,3.99,7.42,6.2c1.65,3.94,4.11,6.89,6.99,9.34
	c1.32,1.12,0.58,3.25-1.15,3.32c-1.4,0.06-2.81,0.06-4.22,0.03c-1.61-0.54-3.07-1.44-4.69-2.74c-1.7-1.36-5.49-3.33-6.38-5.21
	c-1.28-2.7-6.09-2.17-4.67,1c0.53,1.18,1.33,2.28,2.29,3.32c0.99,1.08,0.14,2.82-1.32,2.75c-2.27-0.11-4.54-0.16-6.83-0.09
	c-1.2,0.04-2.08,0.1-2.98,0.2c-0.72,0.08-1.44-0.11-2.04-0.5c-1.59-1.05-3.61-1.81-5.29-2.48c-2.43-0.97-4.46-2.27-7.15-1.48
	c-3.13,0.91-0.86,5.52,1.95,4.75c0.97-0.26,1.63,0.72,2.44,1.2c0.48,0.28,0.98,0.51,1.49,0.74c-1.3,0.74-2.06,1.59-2.3,2.45
	c-0.07,0.08-0.15,0.16-0.21,0.25c-1.29,1.75-2.81,3.82-5.25,3.23c-2.85-0.68-4.61,4.01-1.5,4.9c3.63,1.04,6.77-1.04,9.2-3.56
	c0.51-0.53,1.26-0.72,1.95-0.49c2.28,0.74,5.44,1.17,9.46,1.04c2.18-0.07,4.33-0.05,6.46,0.01c1.18,0.04,1.87,1.34,1.24,2.34
	c-0.16,0.25-0.32,0.5-0.49,0.75c-1.42,2.12-3.7,5.9-6.17,6.92c-2.78,1.15-2.34,5.74,1,4.68c3.46-1.1,5.67-4.34,7.83-7.08
	c1.82-2.3,3.74-4.65,5.25-7.2c8.23,0.46,16.24,0.79,24.27-1.58c2.71-0.8,5.63-0.21,7.84,1.55c1.02,0.81,2.01,1.68,2.95,2.62
	c5.33,5.32,10.13,11.57,15.83,16.25c6.45,5.3,10.41,13.04,10.43,21.39c0.01,2.1,0,4.21-0.01,6.31c-3.95,17.03-7.88,34.06-9.15,51.52
	c-3.03,2.82-5.95,5.73-8.3,9.06c-2.37,3.34,1.9,6.75,5.06,5.51c7.5-2.96,15.66-8.29,23.99-6.21c8.3,2.07,14.77,8.66,23.18,10.76
	c3,0.75,6.26-2.42,4.33-5.41c-11.54-17.89-6.78-40.59-7.69-60.68c-0.53-11.67-3.35-23.34-5.25-34.84c-1.6-9.69-2.87-19.4-3.47-29.17
	c0.84-3.38,2.18-6.63,4.23-9.67c2.71-4.02,6.74-6.3,11.17-7.47c2.9,0.03,5.8,0.04,8.68-0.04c7.72,6.17,16.65,9.51,25.94,11.9
	c1.88,0.48,3.6,1.48,4.97,2.85c2.95,2.96,5.64,6.04,8.54,9.32c3.72,4.21,8.39,5.12,13.88,6.01c2.89,0.46,5.17-2.81,1.95-3.59
	c-3.26-0.79-6.38-1.53-8.96-3.82c-1.68-1.5-3.05-3.34-4.38-5.17c-0.43-0.59-0.15-2.13,0.7-1.96c1.51,0.31,3.02,0.62,4.53,0.95
	c0.21,0.04,0.41,0.08,0.6,0.11c2.58,0.42,5.11,1.07,7.46,2.22c1.42,0.69,2.89,1.35,4.34,2.07c1.26,0.62,5.83,2.1,9.23,1.97
	c1.53-0.05,3.21-0.87,3.57-1.47c0.82-1.39-4.74-4.72-7.64-6.3c-0.55-0.3-0.58-1.2-0.1-1.41c4.31-1.95,8.38-4.5,12.18-7.27
	c2.58-1.88,1.02-5.16-1.81-3.15c-5.35,3.81-11.45,5.14-17.48,7.35c-0.27,0.1-1.2,0.07-1.39-0.05c-0.39-0.25-0.77-0.5-1.14-0.77
	c0.09-0.14,0.19-0.27,0.27-0.43c1.58-2.99,4.38-4.68,7.22-6.41c3.46-2.11,6.09-4.13,7.95-5.9c0.32-0.31,1.46-0.72,1.77-0.71
	c3.96,0.15,8.03-0.07,11.22-2.67C491.67,174.73,489.51,171.18,487.38,172.59z M306.04,140.88c-3.14,0.31-6.28,0.63-9.42,0.86
	c-0.6,0.04-1.15-0.32-1.36-0.88c-1.71-4.58-3.59-9.07-5.08-13.73c-0.65-2.04-1.38-3.71-2.12-5.02c-0.44-0.77-0.02-1.74,0.83-1.97
	l0.02,0c1.64-0.44,3.33-1.09,5.04-1.65c1.38-0.45,2.85,0.38,3.15,1.8c0.64,2.97,2.14,6.62,4.64,10.54c1.79,2.8,3.34,5.5,5.21,7.87
	C307.61,139.54,307.11,140.78,306.04,140.88z M329.56,197.56c-0.73-0.4-1.47-0.79-2.22-1.18c-5.43-2.82-11.47-5.59-13.15-11.96
	l0-0.02c-0.25-0.96,0.02-1.97,0.69-2.69c3.77-4.04,8.63-8.33,8.56-13.84c-0.03-2.51,2.51-0.94,3.64-0.22
	c0.8,0.5,1.28,1.39,1.19,2.33c-0.14,1.44-0.09,3.18,0.22,5.16c1.05,6.78,3.15,13.2,4.63,19.75
	C333.58,196.94,331.4,198.56,329.56,197.56z M346.24,123.1c5.1-6.02,10.56-11.93,13.61-19.17c2.15-5.1,3.56-9.39,4.35-12.8
	c0.33-1.42,2.19-1.78,3.04-0.59c0.75,1.05,1.51,2.1,2.28,3.15c0.71,0.97,0.82,2.24,0.3,3.33c-2.43,5.08-5.07,13.32-7.36,24.6
	c-1.46,7.18-5.39,13.31-9.51,19.31c-1.12,1.64-3.65,1.26-4.23-0.64c-1.27-4.23-2.39-8.51-3.48-12.79
	C344.85,125.95,345.22,124.31,346.24,123.1z M352.4,218.43c-3.7-3.69-6.97-8.12-10.36-11.71c0-0.03,0.01-0.06,0.01-0.09
	c0.39-10.92-4.12-20.51-6.04-31.06c-0.39-2.15-0.86-3.91-1.36-5.35c0.16-0.32,0.28-0.67,0.32-1.05c0.31-2.63,1.7-4.7,2.83-7.01
	c0.01,0,0.01,0,0.02,0c1.15,1.12,2.42,1.72,3.67,1.93c4.18,10.17,9.04,20.19,14.07,29.74c0.02,0.2,0.03,0.39,0.06,0.59
	c1.08,7.13,1.86,14.28,2.43,21.44C358.3,218.93,354.58,220.61,352.4,218.43z M390.34,137.81c-3.9,6.27-5.87,13.34-8.55,20.43
	c-2.68,7.08-7.83,13.05-12.47,19.26c-1.48,1.97-4.51,1.7-5.6-0.51c-2.1-4.26-4.13-8.59-6.05-12.95c-1.18-2.69-0.97-5.8,0.65-8.25
	c6.36-9.64,13.86-18.69,16.18-30.21c1.38-6.81,2.26-12.58,2.75-17.35c0.16-1.57,2.09-2.2,3.14-1.03l0.03,0.03
	c0.29,0.32,0.6,0.59,0.91,0.82c0.68,0.49,1.1,1.27,1.28,2.09c1.8,8.06,4.86,15.84,8.07,23.63
	C391.23,135.08,391.1,136.59,390.34,137.81z M401.1,83.37c3.2-3.79,6.57-7.45,10.16-10.9c0.76-0.73,1.78-1.13,2.83-1.16
	c3.94-0.13,7.84-0.54,11.73-1.19c1.36-0.23,2.6,0.79,2.67,2.17c0.07,1.29,0.18,2.58,0.33,3.85c0.13,1.11-0.3,2.18-1.08,2.97
	c-1.45,1.46-2.8,3.95-3.68,7.54c-1.85,7.56-3.99,15.15-4.94,22.88c-0.1,0.84-1.03,1.32-1.4,0.74c-0.94-1.49-2.04-2.96-3.17-4.44
	c0.07-0.14,0.14-0.28,0.19-0.43c0.74-1.99,1.23-4.1,1.9-6.12c0.43-1.28-0.31-2.73-1.67-2.97c-1.44-0.25-2.78,0.82-3.23,2.13
	c-0.12,0.36-0.25,0.72-0.39,1.08c-0.21,0.56-0.96,0.64-1.28,0.14c-1.24-1.95-2.26-3.97-2.84-6.13c-0.66-2.5-5.45-2.59-4.8,0.37
	c0.97,4.44,3.29,7.85,5.85,11.55c2.21,3.19,5.73,7.53,7.75,11.88c1.43,3.1,0.32,6.73-2.61,8.49c-2.32,1.39-4.75,2.61-7.23,3.75
	c-1.79,0.82-3.86,0.02-4.61-1.8c-2.7-6.57-5.23-13.1-6.7-19.87C392.99,99.19,395.37,90.16,401.1,83.37z M417.22,165.48
	c1.4-3.08,2.4-6.46,4.78-9.08c2.24-2.46-1.05-5.65-3.29-3.16c-2.24,2.49-3.96,5.11-5.32,8.16c-0.68,1.52-1.3,3.78-2.55,4.93
	c-1.58,1.45-4.92,2.18-6.98,2.39c-0.83,0.08-1.71,0.09-2.61,0.07c-3.49-0.09-5.87-3.54-4.73-6.84c2.13-6.16,3.67-12.65,7.9-17.55
	c3.97-1.75,7.92-3.5,11.73-5.49c1.34-0.7,2.94-0.65,4.21,0.18c4.7,3.08,9.63,5.99,15.33,5.59c1.21-0.08,2.39-0.17,3.53-0.27
	c1.71-0.14,2.89,1.69,2.06,3.18c-2.54,4.57-5.29,9.02-7.4,13.8c-0.44,1-1.16,1.87-2.11,2.41c-3.94,2.21-8.02,3.65-12.18,4.58
	C417.88,168.79,416.5,167.06,417.22,165.48z"/>
<path class="st1" d="M90.36,302.23c-2.24,2.69-7.47,6.06-11.15,8.25c-2.29,1.36-0.91,2.35,0.1,3.08c2.25,1.64,2.5,5-0.93,6.29
	c-2.58,0.97-6.46,1.19-9.59,1.19c-2.91-0.01-2.98,1.51-3,2.65c-0.03,1.9-2.08,4.05-5.79,5.14c-5.94,1.74-7.47,1.4-9.92-0.3
	c-1.27-1.6-2.16-8.31,2.35-10.02c0.81-0.31,1.41-1.63,0.81-2.17c-7.26-6.51-4.87-10.04-3.42-10.88c0.65-0.37,2.25,0.5,3.91,1.65
	c2.38,1.65,2.2-0.79,1.33-2.57c-3.69-7.53-2.23-8.91-0.88-9.26c0.83-0.21,2.61,0.52,4.18,1.31c1.57,0.79,2.32-0.91,2.2-2.25
	c-0.62-6.97,1.95-14.75,5-14.78c1.67-0.02,2.85,1.48,3.64,3.1c0.93,1.92,2.14,0.8,2.6-0.52c2.9-8.36,6.93-9.58,10.45-8.38
	c3.45,1.17,5.9,9.2,2.68,17.63c-0.59,1.54,0.82,3,2.12,2.98C91.17,294.31,93.12,298.91,90.36,302.23z M87.04,237.37
	c-1.3,0.02-2.71-1.44-2.12-2.98c3.22-8.43,0.77-16.46-2.68-17.63c-3.52-1.19-7.55,0.02-10.45,8.38c-0.46,1.33-1.67,2.44-2.6,0.52
	c-0.79-1.62-1.97-3.12-3.64-3.1c-3.05,0.03-5.62,7.81-5,14.78c0.12,1.35-0.63,3.04-2.2,2.25c-1.57-0.79-3.35-1.52-4.18-1.31
	c-1.35,0.34-2.81,1.72,0.88,9.26c0.87,1.78,1.05,4.21-1.33,2.57c-1.66-1.15-3.26-2.02-3.91-1.65c-1.45,0.84-3.85,4.37,3.42,10.88
	c0.6,0.54,0.01,1.86-0.81,2.17c-4.51,1.71-3.62,8.42-2.35,10.02c2.45,1.7,3.99,2.04,9.92,0.3c3.71-1.09,5.76-3.24,5.79-5.14
	c0.02-1.14,0.09-2.66,3-2.65c3.13,0.01,7.01-0.22,9.59-1.19c3.44-1.29,3.19-4.65,0.93-6.29c-1.01-0.73-2.39-1.72-0.1-3.08
	c3.68-2.19,8.91-5.56,11.15-8.25C93.12,241.91,91.17,237.31,87.04,237.37z M87.04,178.37c-1.3,0.02-2.71-1.44-2.12-2.98
	c3.22-8.43,0.77-16.46-2.68-17.63c-3.52-1.19-7.55,0.02-10.45,8.38c-0.46,1.33-1.67,2.44-2.6,0.52c-0.79-1.62-1.97-3.12-3.64-3.1
	c-3.05,0.03-5.62,7.81-5,14.78c0.12,1.35-0.63,3.04-2.2,2.25c-1.57-0.79-3.35-1.52-4.18-1.31c-1.35,0.34-2.81,1.72,0.88,9.26
	c0.87,1.78,1.05,4.21-1.33,2.57c-1.66-1.15-3.26-2.02-3.91-1.65c-1.45,0.84-3.85,4.37,3.42,10.88c0.6,0.54,0.01,1.86-0.81,2.17
	c-4.51,1.71-3.62,8.42-2.35,10.02c2.45,1.7,3.99,2.04,9.92,0.3c3.71-1.09,5.76-3.24,5.79-5.14c0.02-1.14,0.09-2.66,3-2.65
	c3.13,0.01,7.01-0.22,9.59-1.19c3.44-1.29,3.19-4.65,0.93-6.29c-1.01-0.73-2.39-1.72-0.1-3.08c3.68-2.19,8.91-5.56,11.15-8.25
	C93.12,182.91,91.17,178.31,87.04,178.37z M87.04,119.37c-1.3,0.02-2.71-1.44-2.12-2.98c3.22-8.43,0.77-16.46-2.68-17.63
	c-3.52-1.19-7.55,0.02-10.45,8.38c-0.46,1.33-1.67,2.44-2.6,0.52c-0.79-1.62-1.97-3.12-3.64-3.1c-3.05,0.03-5.62,7.81-5,14.78
	c0.12,1.35-0.63,3.04-2.2,2.25c-1.57-0.79-3.35-1.52-4.18-1.31c-1.35,0.34-2.81,1.72,0.88,9.26c0.87,1.78,1.05,4.21-1.33,2.57
	c-1.66-1.15-3.26-2.02-3.91-1.65c-1.45,0.84-3.85,4.37,3.42,10.88c0.6,0.54,0.01,1.86-0.81,2.17c-4.51,1.71-3.62,8.42-2.35,10.02
	c2.45,1.7,3.99,2.04,9.92,0.3c3.71-1.09,5.76-3.24,5.79-5.14c0.02-1.14,0.09-2.66,3-2.65c3.13,0.01,7.01-0.22,9.59-1.19
	c3.44-1.29,3.19-4.65,0.93-6.29c-1.01-0.73-2.39-1.72-0.1-3.08c3.68-2.19,8.91-5.56,11.15-8.25
	C93.12,123.91,91.17,119.31,87.04,119.37z M87.04,62.98c-1.3,0.02-2.71-1.44-2.12-2.98c3.22-8.43,0.77-16.46-2.68-17.63
	c-3.52-1.19-7.55,0.02-10.45,8.38c-0.46,1.33-1.67,2.44-2.6,0.52c-0.79-1.62-1.97-3.12-3.64-3.1c-3.05,0.03-5.62,7.81-5,14.78
	c0.12,1.35-0.63,3.04-2.2,2.25c-1.57-0.79-3.35-1.52-4.18-1.31c-1.35,0.34-2.81,1.72,0.88,9.26c0.87,1.78,1.05,4.21-1.33,2.57
	c-1.66-1.15-3.26-2.02-3.91-1.65c-1.45,0.84-3.85,4.37,3.42,10.88c0.6,0.54,0.01,1.86-0.81,2.17c-4.51,1.71-3.62,8.42-2.35,10.02
	c2.45,1.7,3.99,2.04,9.92,0.3c3.71-1.09,5.76-3.24,5.79-5.14c0.02-1.14,0.09-2.66,3-2.65c3.13,0.01,7.01-0.22,9.59-1.19
	c3.44-1.29,3.19-4.65,0.93-6.29c-1.01-0.73-2.39-1.72-0.1-3.08c3.68-2.19,8.91-5.56,11.15-8.25C93.12,67.52,91.17,62.92,87.04,62.98
	z M138.04,294.37c-1.3,0.02-2.71-1.44-2.12-2.98c3.22-8.43,0.77-16.46-2.68-17.63c-3.52-1.19-7.55,0.02-10.45,8.38
	c-0.46,1.33-1.67,2.44-2.6,0.52c-0.79-1.62-1.97-3.12-3.64-3.1c-3.05,0.03-5.62,7.81-5,14.78c0.12,1.35-0.63,3.04-2.2,2.25
	c-1.57-0.79-3.35-1.52-4.18-1.31c-1.35,0.34-2.81,1.72,0.88,9.26c0.87,1.78,1.05,4.21-1.33,2.57c-1.66-1.15-3.26-2.02-3.91-1.65
	c-1.45,0.84-3.85,4.37,3.42,10.88c0.6,0.54,0.01,1.86-0.81,2.17c-4.51,1.71-3.62,8.42-2.35,10.02c2.45,1.7,3.99,2.04,9.92,0.3
	c3.71-1.09,5.76-3.24,5.79-5.14c0.02-1.14,0.09-2.66,3-2.65c3.13,0.01,7.01-0.22,9.59-1.19c3.44-1.29,3.19-4.65,0.93-6.29
	c-1.01-0.73-2.39-1.72-0.1-3.08c3.68-2.19,8.91-5.56,11.15-8.25C144.12,298.91,142.17,294.31,138.04,294.37z M138.04,237.37
	c-1.3,0.02-2.71-1.44-2.12-2.98c3.22-8.43,0.77-16.46-2.68-17.63c-3.52-1.19-7.55,0.02-10.45,8.38c-0.46,1.33-1.67,2.44-2.6,0.52
	c-0.79-1.62-1.97-3.12-3.64-3.1c-3.05,0.03-5.62,7.81-5,14.78c0.12,1.35-0.63,3.04-2.2,2.25c-1.57-0.79-3.35-1.52-4.18-1.31
	c-1.35,0.34-2.81,1.72,0.88,9.26c0.87,1.78,1.05,4.21-1.33,2.57c-1.66-1.15-3.26-2.02-3.91-1.65c-1.45,0.84-3.85,4.37,3.42,10.88
	c0.6,0.54,0.01,1.86-0.81,2.17c-4.51,1.71-3.62,8.42-2.35,10.02c2.45,1.7,3.99,2.04,9.92,0.3c3.71-1.09,5.76-3.24,5.79-5.14
	c0.02-1.14,0.09-2.66,3-2.65c3.13,0.01,7.01-0.22,9.59-1.19c3.44-1.29,3.19-4.65,0.93-6.29c-1.01-0.73-2.39-1.72-0.1-3.08
	c3.68-2.19,8.91-5.56,11.15-8.25C144.12,241.91,142.17,237.31,138.04,237.37z M138.04,178.37c-1.3,0.02-2.71-1.44-2.12-2.98
	c3.22-8.43,0.77-16.46-2.68-17.63c-3.52-1.19-7.55,0.02-10.45,8.38c-0.46,1.33-1.67,2.44-2.6,0.52c-0.79-1.62-1.97-3.12-3.64-3.1
	c-3.05,0.03-5.62,7.81-5,14.78c0.12,1.35-0.63,3.04-2.2,2.25c-1.57-0.79-3.35-1.52-4.18-1.31c-1.35,0.34-2.81,1.72,0.88,9.26
	c0.87,1.78,1.05,4.21-1.33,2.57c-1.66-1.15-3.26-2.02-3.91-1.65c-1.45,0.84-3.85,4.37,3.42,10.88c0.6,0.54,0.01,1.86-0.81,2.17
	c-4.51,1.71-3.62,8.42-2.35,10.02c2.45,1.7,3.99,2.04,9.92,0.3c3.71-1.09,5.76-3.24,5.79-5.14c0.02-1.14,0.09-2.66,3-2.65
	c3.13,0.01,7.01-0.22,9.59-1.19c3.44-1.29,3.19-4.65,0.93-6.29c-1.01-0.73-2.39-1.72-0.1-3.08c3.68-2.19,8.91-5.56,11.15-8.25
	C144.12,182.91,142.17,178.31,138.04,178.37z M138.04,119.37c-1.3,0.02-2.71-1.44-2.12-2.98c3.22-8.43,0.77-16.46-2.68-17.63
	c-3.52-1.19-7.55,0.02-10.45,8.38c-0.46,1.33-1.67,2.44-2.6,0.52c-0.79-1.62-1.97-3.12-3.64-3.1c-3.05,0.03-5.62,7.81-5,14.78
	c0.12,1.35-0.63,3.04-2.2,2.25c-1.57-0.79-3.35-1.52-4.18-1.31c-1.35,0.34-2.81,1.72,0.88,9.26c0.87,1.78,1.05,4.21-1.33,2.57
	c-1.66-1.15-3.26-2.02-3.91-1.65c-1.45,0.84-3.85,4.37,3.42,10.88c0.6,0.54,0.01,1.86-0.81,2.17c-4.51,1.71-3.62,8.42-2.35,10.02
	c2.45,1.7,3.99,2.04,9.92,0.3c3.71-1.09,5.76-3.24,5.79-5.14c0.02-1.14,0.09-2.66,3-2.65c3.13,0.01,7.01-0.22,9.59-1.19
	c3.44-1.29,3.19-4.65,0.93-6.29c-1.01-0.73-2.39-1.72-0.1-3.08c3.68-2.19,8.91-5.56,11.15-8.25
	C144.12,123.91,142.17,119.31,138.04,119.37z M138.04,62.98c-1.3,0.02-2.71-1.44-2.12-2.98c3.22-8.43,0.77-16.46-2.68-17.63
	c-3.52-1.19-7.55,0.02-10.45,8.38c-0.46,1.33-1.67,2.44-2.6,0.52c-0.79-1.62-1.97-3.12-3.64-3.1c-3.05,0.03-5.62,7.81-5,14.78
	c0.12,1.35-0.63,3.04-2.2,2.25c-1.57-0.79-3.35-1.52-4.18-1.31c-1.35,0.34-2.81,1.72,0.88,9.26c0.87,1.78,1.05,4.21-1.33,2.57
	c-1.66-1.15-3.26-2.02-3.91-1.65c-1.45,0.84-3.85,4.37,3.42,10.88c0.6,0.54,0.01,1.86-0.81,2.17c-4.51,1.71-3.62,8.42-2.35,10.02
	c2.45,1.7,3.99,2.04,9.92,0.3c3.71-1.09,5.76-3.24,5.79-5.14c0.02-1.14,0.09-2.66,3-2.65c3.13,0.01,7.01-0.22,9.59-1.19
	c3.44-1.29,3.19-4.65,0.93-6.29c-1.01-0.73-2.39-1.72-0.1-3.08c3.68-2.19,8.91-5.56,11.15-8.25
	C144.12,67.52,142.17,62.92,138.04,62.98z M189.04,294.37c-1.3,0.02-2.71-1.44-2.12-2.98c3.22-8.43,0.77-16.46-2.68-17.63
	c-3.52-1.19-7.55,0.02-10.45,8.38c-0.46,1.33-1.67,2.44-2.6,0.52c-0.79-1.62-1.97-3.12-3.64-3.1c-3.05,0.03-5.62,7.81-5,14.78
	c0.12,1.35-0.63,3.04-2.2,2.25c-1.57-0.79-3.35-1.52-4.18-1.31c-1.35,0.34-2.81,1.72,0.88,9.26c0.87,1.78,1.05,4.21-1.33,2.57
	c-1.66-1.15-3.26-2.02-3.91-1.65c-1.45,0.84-3.85,4.37,3.42,10.88c0.6,0.54,0.01,1.86-0.81,2.17c-4.51,1.71-3.62,8.42-2.35,10.02
	c2.45,1.7,3.99,2.04,9.92,0.3c3.71-1.09,5.76-3.24,5.79-5.14c0.02-1.14,0.09-2.66,3-2.65c3.13,0.01,7.01-0.22,9.59-1.19
	c3.44-1.29,3.19-4.65,0.93-6.29c-1.01-0.73-2.39-1.72-0.1-3.08c3.68-2.19,8.91-5.56,11.15-8.25
	C195.12,298.91,193.17,294.31,189.04,294.37z M189.04,237.37c-1.3,0.02-2.71-1.44-2.12-2.98c3.22-8.43,0.77-16.46-2.68-17.63
	c-3.52-1.19-7.55,0.02-10.45,8.38c-0.46,1.33-1.67,2.44-2.6,0.52c-0.79-1.62-1.97-3.12-3.64-3.1c-3.05,0.03-5.62,7.81-5,14.78
	c0.12,1.35-0.63,3.04-2.2,2.25c-1.57-0.79-3.35-1.52-4.18-1.31c-1.35,0.34-2.81,1.72,0.88,9.26c0.87,1.78,1.05,4.21-1.33,2.57
	c-1.66-1.15-3.26-2.02-3.91-1.65c-1.45,0.84-3.85,4.37,3.42,10.88c0.6,0.54,0.01,1.86-0.81,2.17c-4.51,1.71-3.62,8.42-2.35,10.02
	c2.45,1.7,3.99,2.04,9.92,0.3c3.71-1.09,5.76-3.24,5.79-5.14c0.02-1.14,0.09-2.66,3-2.65c3.13,0.01,7.01-0.22,9.59-1.19
	c3.44-1.29,3.19-4.65,0.93-6.29c-1.01-0.73-2.39-1.72-0.1-3.08c3.68-2.19,8.91-5.56,11.15-8.25
	C195.12,241.91,193.17,237.31,189.04,237.37z M189.04,178.37c-1.3,0.02-2.71-1.44-2.12-2.98c3.22-8.43,0.77-16.46-2.68-17.63
	c-3.52-1.19-7.55,0.02-10.45,8.38c-0.46,1.33-1.67,2.44-2.6,0.52c-0.79-1.62-1.97-3.12-3.64-3.1c-3.05,0.03-5.62,7.81-5,14.78
	c0.12,1.35-0.63,3.04-2.2,2.25c-1.57-0.79-3.35-1.52-4.18-1.31c-1.35,0.34-2.81,1.72,0.88,9.26c0.87,1.78,1.05,4.21-1.33,2.57
	c-1.66-1.15-3.26-2.02-3.91-1.65c-1.45,0.84-3.85,4.37,3.42,10.88c0.6,0.54,0.01,1.86-0.81,2.17c-4.51,1.71-3.62,8.42-2.35,10.02
	c2.45,1.7,3.99,2.04,9.92,0.3c3.71-1.09,5.76-3.24,5.79-5.14c0.02-1.14,0.09-2.66,3-2.65c3.13,0.01,7.01-0.22,9.59-1.19
	c3.44-1.29,3.19-4.65,0.93-6.29c-1.01-0.73-2.39-1.72-0.1-3.08c3.68-2.19,8.91-5.56,11.15-8.25
	C195.12,182.91,193.17,178.31,189.04,178.37z M189.04,119.37c-1.3,0.02-2.71-1.44-2.12-2.98c3.22-8.43,0.77-16.46-2.68-17.63
	c-3.52-1.19-7.55,0.02-10.45,8.38c-0.46,1.33-1.67,2.44-2.6,0.52c-0.79-1.62-1.97-3.12-3.64-3.1c-3.05,0.03-5.62,7.81-5,14.78
	c0.12,1.35-0.63,3.04-2.2,2.25c-1.57-0.79-3.35-1.52-4.18-1.31c-1.35,0.34-2.81,1.72,0.88,9.26c0.87,1.78,1.05,4.21-1.33,2.57
	c-1.66-1.15-3.26-2.02-3.91-1.65c-1.45,0.84-3.85,4.37,3.42,10.88c0.6,0.54,0.01,1.86-0.81,2.17c-4.51,1.71-3.62,8.42-2.35,10.02
	c2.45,1.7,3.99,2.04,9.92,0.3c3.71-1.09,5.76-3.24,5.79-5.14c0.02-1.14,0.09-2.66,3-2.65c3.13,0.01,7.01-0.22,9.59-1.19
	c3.44-1.29,3.19-4.65,0.93-6.29c-1.01-0.73-2.39-1.72-0.1-3.08c3.68-2.19,8.91-5.56,11.15-8.25
	C195.12,123.91,193.17,119.31,189.04,119.37z M189.04,62.98c-1.3,0.02-2.71-1.44-2.12-2.98c3.22-8.43,0.77-16.46-2.68-17.63
	c-3.52-1.19-7.55,0.02-10.45,8.38c-0.46,1.33-1.67,2.44-2.6,0.52c-0.79-1.62-1.97-3.12-3.64-3.1c-3.05,0.03-5.62,7.81-5,14.78
	c0.12,1.35-0.63,3.04-2.2,2.25c-1.57-0.79-3.35-1.52-4.18-1.31c-1.35,0.34-2.81,1.72,0.88,9.26c0.87,1.78,1.05,4.21-1.33,2.57
	c-1.66-1.15-3.26-2.02-3.91-1.65c-1.45,0.84-3.85,4.37,3.42,10.88c0.6,0.54,0.01,1.86-0.81,2.17c-4.51,1.71-3.62,8.42-2.35,10.02
	c2.45,1.7,3.99,2.04,9.92,0.3c3.71-1.09,5.76-3.24,5.79-5.14c0.02-1.14,0.09-2.66,3-2.65c3.13,0.01,7.01-0.22,9.59-1.19
	c3.44-1.29,3.19-4.65,0.93-6.29c-1.01-0.73-2.39-1.72-0.1-3.08c3.68-2.19,8.91-5.56,11.15-8.25
	C195.12,67.52,193.17,62.92,189.04,62.98z M240.04,294.37c-1.3,0.02-2.71-1.44-2.12-2.98c3.22-8.43,0.77-16.46-2.68-17.63
	c-3.52-1.19-7.55,0.02-10.45,8.38c-0.46,1.33-1.67,2.44-2.6,0.52c-0.79-1.62-1.97-3.12-3.64-3.1c-3.05,0.03-5.62,7.81-5,14.78
	c0.12,1.35-0.63,3.04-2.2,2.25c-1.57-0.79-3.35-1.52-4.18-1.31c-1.35,0.34-2.81,1.72,0.88,9.26c0.87,1.78,1.05,4.21-1.33,2.57
	c-1.66-1.15-3.26-2.02-3.91-1.65c-1.45,0.84-3.85,4.37,3.42,10.88c0.6,0.54,0.01,1.86-0.81,2.17c-4.51,1.71-3.62,8.42-2.35,10.02
	c2.45,1.7,3.99,2.04,9.92,0.3c3.71-1.09,5.76-3.24,5.79-5.14c0.02-1.14,0.09-2.66,3-2.65c3.13,0.01,7.01-0.22,9.59-1.19
	c3.44-1.29,3.19-4.65,0.93-6.29c-1.01-0.73-2.39-1.72-0.1-3.08c3.68-2.19,8.91-5.56,11.15-8.25
	C246.12,298.91,244.17,294.31,240.04,294.37z M240.04,237.37c-1.3,0.02-2.71-1.44-2.12-2.98c3.22-8.43,0.77-16.46-2.68-17.63
	c-3.52-1.19-7.55,0.02-10.45,8.38c-0.46,1.33-1.67,2.44-2.6,0.52c-0.79-1.62-1.97-3.12-3.64-3.1c-3.05,0.03-5.62,7.81-5,14.78
	c0.12,1.35-0.63,3.04-2.2,2.25c-1.57-0.79-3.35-1.52-4.18-1.31c-1.35,0.34-2.81,1.72,0.88,9.26c0.87,1.78,1.05,4.21-1.33,2.57
	c-1.66-1.15-3.26-2.02-3.91-1.65c-1.45,0.84-3.85,4.37,3.42,10.88c0.6,0.54,0.01,1.86-0.81,2.17c-4.51,1.71-3.62,8.42-2.35,10.02
	c2.45,1.7,3.99,2.04,9.92,0.3c3.71-1.09,5.76-3.24,5.79-5.14c0.02-1.14,0.09-2.66,3-2.65c3.13,0.01,7.01-0.22,9.59-1.19
	c3.44-1.29,3.19-4.65,0.93-6.29c-1.01-0.73-2.39-1.72-0.1-3.08c3.68-2.19,8.91-5.56,11.15-8.25
	C246.12,241.91,244.17,237.31,240.04,237.37z M240.04,178.37c-1.3,0.02-2.71-1.44-2.12-2.98c3.22-8.43,0.77-16.46-2.68-17.63
	c-3.52-1.19-7.55,0.02-10.45,8.38c-0.46,1.33-1.67,2.44-2.6,0.52c-0.79-1.62-1.97-3.12-3.64-3.1c-3.05,0.03-5.62,7.81-5,14.78
	c0.12,1.35-0.63,3.04-2.2,2.25c-1.57-0.79-3.35-1.52-4.18-1.31c-1.35,0.34-2.81,1.72,0.88,9.26c0.87,1.78,1.05,4.21-1.33,2.57
	c-1.66-1.15-3.26-2.02-3.91-1.65c-1.45,0.84-3.85,4.37,3.42,10.88c0.6,0.54,0.01,1.86-0.81,2.17c-4.51,1.71-3.62,8.42-2.35,10.02
	c2.45,1.7,3.99,2.04,9.92,0.3c3.71-1.09,5.76-3.24,5.79-5.14c0.02-1.14,0.09-2.66,3-2.65c3.13,0.01,7.01-0.22,9.59-1.19
	c3.44-1.29,3.19-4.65,0.93-6.29c-1.01-0.73-2.39-1.72-0.1-3.08c3.68-2.19,8.91-5.56,11.15-8.25
	C246.12,182.91,244.17,178.31,240.04,178.37z M240.04,119.37c-1.3,0.02-2.71-1.44-2.12-2.98c3.22-8.43,0.77-16.46-2.68-17.63
	c-3.52-1.19-7.55,0.02-10.45,8.38c-0.46,1.33-1.67,2.44-2.6,0.52c-0.79-1.62-1.97-3.12-3.64-3.1c-3.05,0.03-5.62,7.81-5,14.78
	c0.12,1.35-0.63,3.04-2.2,2.25c-1.57-0.79-3.35-1.52-4.18-1.31c-1.35,0.34-2.81,1.72,0.88,9.26c0.87,1.78,1.05,4.21-1.33,2.57
	c-1.66-1.15-3.26-2.02-3.91-1.65c-1.45,0.84-3.85,4.37,3.42,10.88c0.6,0.54,0.01,1.86-0.81,2.17c-4.51,1.71-3.62,8.42-2.35,10.02
	c2.45,1.7,3.99,2.04,9.92,0.3c3.71-1.09,5.76-3.24,5.79-5.14c0.02-1.14,0.09-2.66,3-2.65c3.13,0.01,7.01-0.22,9.59-1.19
	c3.44-1.29,3.19-4.65,0.93-6.29c-1.01-0.73-2.39-1.72-0.1-3.08c3.68-2.19,8.91-5.56,11.15-8.25
	C246.12,123.91,244.17,119.31,240.04,119.37z M206.22,84.95c0.6,0.54,0.01,1.86-0.81,2.17c-4.51,1.71-3.62,8.42-2.35,10.02
	c2.45,1.7,3.99,2.04,9.92,0.3c3.71-1.09,5.76-3.24,5.79-5.14c0.02-1.14,0.09-2.66,3-2.65c3.13,0.01,7.01-0.22,9.59-1.19
	c3.44-1.29,3.19-4.65,0.93-6.29c-1.01-0.73-2.39-1.72-0.1-3.08c3.68-2.19,8.91-5.56,11.15-8.25c2.77-3.32,0.81-7.92-3.32-7.86
	c-1.3,0.02-2.71-1.44-2.12-2.98c3.22-8.43,0.77-16.46-2.68-17.63c-3.52-1.19-7.55,0.02-10.45,8.38c-0.46,1.33-1.67,2.44-2.6,0.52
	c-0.79-1.62-1.97-3.12-3.64-3.1c-3.05,0.03-5.62,7.81-5,14.78c0.12,1.35-0.63,3.04-2.2,2.25c-1.57-0.79-3.35-1.52-4.18-1.31
	c-1.35,0.34-2.81,1.72,0.88,9.26c0.87,1.78,1.05,4.21-1.33,2.57c-1.66-1.15-3.26-2.02-3.91-1.65
	C201.36,74.91,198.96,78.44,206.22,84.95z"/>
</svg>
